<?xml version="1.0" standalone="no"?><!DOCTYPE svg PUBLIC "-//W3C//DTD SVG 1.1//EN" "http://www.w3.org/Graphics/SVG/1.1/DTD/svg11.dtd"><svg class="icon" width="200px" height="160.00px" viewBox="0 0 1280 1024" version="1.1" xmlns="http://www.w3.org/2000/svg"><path d="M298.666667 170.666667l0 85.333333 85.333333 0L384 170.666667 298.666667 170.666667zM128 0l0 512 85.333333 0 0-85.333333 341.333333 0L554.666667 341.333333l85.333333 0L640 256l-85.333333 0L554.666667 85.333333 554.666667 0 128 0zM213.333333 341.333333 213.333333 85.333333l256 0 0 256L213.333333 341.333333zM896 170.666667l0 85.333333 85.333333 0L981.333333 170.666667 896 170.666667zM640 0l0 170.666667 85.333333 0 0 256 170.666667 0 0 256 256 0 0-170.666667-170.666667 0 0-85.333333 170.666667 0L1152 0l-341.333333 0L640 0zM810.666667 85.333333l256 0 0 256-256 0L810.666667 85.333333zM298.666667 768l0 85.333333 85.333333 0 0-85.333333L298.666667 768zM213.333333 682.666667l256 0 0 256L213.333333 938.666667 213.333333 682.666667zM554.666667 597.333333 384 597.333333l0-85.333333L298.666667 512l0 85.333333L128 597.333333l0 426.666667 426.666667 0L554.666667 597.333333zM725.333333 853.333333l0 85.333333 170.666667 0 0-85.333333 85.333333 0 0-85.333333-170.666667 0 0-170.666667 0-85.333333-213.333333 0 0 85.333333 128 0 0 170.666667-85.333333 0 0 85.333333L725.333333 853.333333zM725.333333 1024l0-85.333333-85.333333 0 0 85.333333L725.333333 1024zM1152 938.666667l-256 0 0 85.333333 256 0L1152 938.666667zM1066.666667 768l0 85.333333 85.333333 0 0-85.333333L1066.666667 768z" fill="#8a8a8a" /></svg>