<?xml version="1.0" standalone="no"?><!DOCTYPE svg PUBLIC "-//W3C//DTD SVG 1.1//EN" "http://www.w3.org/Graphics/SVG/1.1/DTD/svg11.dtd"><svg t="1554102868276" class="icon" style="" viewBox="0 0 1024 1024" version="1.1" xmlns="http://www.w3.org/2000/svg" p-id="1971" xmlns:xlink="http://www.w3.org/1999/xlink" width="128" height="128"><defs><style type="text/css"></style></defs><path d="M654.4 1024L576 940.8a582.4 582.4 0 0 0 208.96-435.2 559.36 559.36 0 0 0-189.44-422.4L673.92 0A688.96 688.96 0 0 1 896 505.6 678.72 678.72 0 0 1 654.4 1024z m-214.72-224L352 718.72a240.32 240.32 0 0 0 134.72-213.12 244.48 244.48 0 0 0-114.56-200.32L459.84 224A352 352 0 0 1 608 505.6 361.92 361.92 0 0 1 439.68 800zM208 608a80 80 0 0 1 0-160 80 80 0 0 1 0 160z" p-id="1972" fill="#707070"></path></svg>